<svg xmlns="http://www.w3.org/2000/svg" viewBox="0 0 900 760" role="img" aria-labelledby="title desc">
  <title id="title">풍무농산 로고</title>
  <desc id="desc">청년 농부와 밭, 해, 새싹을 담은 풍무농산 청년가게 로고</desc>
  <defs>
    <style>
      .green{fill:#609b19}.deep{fill:#5a3b18}.orange{fill:#ff8a21}.line{stroke:#5a3b18;stroke-width:10;stroke-linecap:round;stroke-linejoin:round;fill:none}.thin{stroke:#8f6a35;stroke-width:4;stroke-linecap:round;fill:none}.skin{fill:#f7d8bd}.shirt{fill:#fffdf7}.overall{fill:#798323}
    </style>
  </defs>
  <rect width="900" height="760" fill="#fff"/>

  <g transform="translate(160 80)">
    <path d="M105 258c21-128 135-225 271-225 141 0 258 105 274 242" fill="none" stroke="#609b19" stroke-width="18" stroke-linecap="round"/>
    <path d="M92 405c117 7 180 84 291 83 103-1 184-76 294-56" fill="none" stroke="#609b19" stroke-width="52" stroke-linecap="round"/>
    <path d="M110 344c98 7 169 56 245 92" fill="none" stroke="#609b19" stroke-width="30" stroke-linecap="round"/>
    <path d="M130 296c79 10 145 39 209 82" fill="none" stroke="#609b19" stroke-width="26" stroke-linecap="round"/>
    <circle cx="543" cy="302" r="56" class="orange"/>
  </g>

  <g transform="translate(310 142)">
    <ellipse cx="170" cy="82" rx="116" ry="52" fill="#d7a455" stroke="#9b7138" stroke-width="8"/>
    <ellipse cx="180" cy="47" rx="58" ry="38" fill="#d7a455" stroke="#9b7138" stroke-width="7"/>
    <path d="M72 75c63-25 154-23 221 7" class="thin"/>
    <path d="M116 33c-10 22-16 47-18 74M150 20c-12 27-18 56-19 86M193 20c9 24 13 52 12 84M230 31c10 25 15 50 14 75M92 55c66 7 133 20 196 42M86 91c67-8 134-4 205 9" class="thin"/>

    <path d="M102 122c-18 16-25 42-15 69 12 33 43 54 82 54h28c39 0 70-21 82-54 10-27 3-53-15-69-40-23-121-24-162 0Z" class="skin" stroke="#5a3b18" stroke-width="8"/>
    <path d="M96 122c31-34 118-43 178 4-34-1-77-10-101-37 1 22 12 42 25 58-37-8-66-24-81-50 0 15 3 29 10 42-13-3-23-9-31-17Z" fill="#2f2215"/>
    <circle cx="118" cy="165" r="7" class="deep"/>
    <circle cx="241" cy="165" r="7" class="deep"/>
    <path d="M153 204c19 14 41 14 59 0" class="line" stroke-width="7"/>
    <circle cx="113" cy="185" r="13" fill="#efb99d"/>
    <circle cx="250" cy="185" r="13" fill="#efb99d"/>

    <path d="M83 264c-50 34-73 93-70 155 2 44 24 69 64 69 22 0 39-11 51-30l10-111" class="shirt" stroke="#5a3b18" stroke-width="9"/>
    <path d="M286 264c50 34 73 93 70 155-2 44-24 69-64 69-22 0-39-11-51-30l-10-111" class="shirt" stroke="#5a3b18" stroke-width="9"/>
    <path d="M110 261h146l-20 207H130L110 261Z" class="overall"/>
    <path d="M121 264l-28 125M247 264l28 125" stroke="#5a3b18" stroke-width="14" stroke-linecap="round"/>
    <rect x="146" y="352" width="76" height="56" fill="#6d7621" stroke="#5a3b18" stroke-width="6"/>
    <circle cx="103" cy="359" r="8" fill="#c2be8f" stroke="#5a3b18" stroke-width="5"/>
    <circle cx="263" cy="359" r="8" fill="#c2be8f" stroke="#5a3b18" stroke-width="5"/>

    <path d="M136 430c17-22 74-22 95 0" fill="#61451e"/>
    <path d="M183 418v-82" stroke="#609b19" stroke-width="10" stroke-linecap="round"/>
    <path d="M181 342c-54-2-81-31-91-67 47-5 83 18 91 67Z" fill="#68a616" stroke="#4d8514" stroke-width="5"/>
    <path d="M185 342c54-2 81-31 91-67-47-5-83 18-91 67Z" fill="#68a616" stroke="#4d8514" stroke-width="5"/>
    <path d="M70 423c35-13 56-1 72 21M295 423c-35-13-56-1-72 21" fill="none" stroke="#c8c0ad" stroke-width="5" stroke-linecap="round"/>
    <path d="M71 425c-28 4-42 26-37 51 5 29 31 42 59 27l44-25c12-7 17-22 10-34-8-14-26-18-39-10l-18 11" class="skin" stroke="#5a3b18" stroke-width="8"/>
    <path d="M295 425c28 4 42 26 37 51-5 29-31 42-59 27l-44-25c-12-7-17-22-10-34 8-14 26-18 39-10l18 11" class="skin" stroke="#5a3b18" stroke-width="8"/>
  </g>

  <g transform="translate(80 540)">
    <path d="M42 58c-37-1-61-22-71-55 44 0 72 19 85 55h83" fill="none" stroke="#609b19" stroke-width="18" stroke-linecap="round"/>
    <text x="0" y="90" font-family="Apple SD Gothic Neo, Malgun Gothic, Pretendard, sans-serif" font-size="118" font-weight="900" letter-spacing="-10" fill="#609b19">풍</text>
    <text x="190" y="90" font-family="Apple SD Gothic Neo, Malgun Gothic, Pretendard, sans-serif" font-size="118" font-weight="900" letter-spacing="-10" fill="#ff8a21">무</text>
    <text x="365" y="90" font-family="Apple SD Gothic Neo, Malgun Gothic, Pretendard, sans-serif" font-size="118" font-weight="900" letter-spacing="-10" fill="#5a3b18">농산</text>
    <text x="165" y="150" font-family="Apple SD Gothic Neo, Malgun Gothic, Pretendard, sans-serif" font-size="29" font-weight="800" letter-spacing="16" fill="#609b19">PUNGMU NONGSAN</text>
    <path d="M315 188h70M520 188h70" stroke="#5a3b18" stroke-width="3" stroke-linecap="round"/>
    <text x="405" y="200" text-anchor="middle" font-family="Apple SD Gothic Neo, Malgun Gothic, Pretendard, sans-serif" font-size="30" font-weight="700" letter-spacing="20" fill="#5a3b18">청년가게</text>
  </g>
</svg>
