<svg xmlns="http://www.w3.org/2000/svg" viewBox="0 0 240 180" role="img" aria-labelledby="title desc">
  <title id="title">풍무농산 심볼</title>
  <desc id="desc">청년 농부, 밭, 해, 새싹을 담은 풍무농산 심볼</desc>
  <rect width="240" height="180" rx="30" fill="#fffdf6"/>
  <path d="M31 126c39-3 62 20 89 20 31 0 54-27 89-21" fill="none" stroke="#5b971b" stroke-width="19" stroke-linecap="round"/>
  <path d="M39 109c33 3 59 15 82 34" fill="none" stroke="#5b971b" stroke-width="11" stroke-linecap="round"/>
  <path d="M47 94c24 3 47 12 65 27" fill="none" stroke="#5b971b" stroke-width="9" stroke-linecap="round"/>
  <circle cx="178" cy="76" r="20" fill="#ff8a21"/>
  <path d="M44 92c12-47 54-81 104-81 48 0 89 32 103 76" fill="none" stroke="#5b971b" stroke-width="7" stroke-linecap="round"/>

  <g transform="translate(69 24)">
    <ellipse cx="51" cy="25" rx="43" ry="19" fill="#d7a455" stroke="#8f6933" stroke-width="3"/>
    <ellipse cx="55" cy="13" rx="23" ry="13" fill="#d7a455" stroke="#8f6933" stroke-width="3"/>
    <path d="M13 26c25-10 55-9 78 2M25 13c-4 9-6 17-7 28M42 7c-5 10-7 22-7 35M63 7c4 10 6 22 5 34M81 14c4 10 6 19 5 28" fill="none" stroke="#9f763d" stroke-width="1.6" stroke-linecap="round"/>

    <path d="M24 43c-8 7-10 18-6 28 5 14 18 22 33 22h10c16 0 29-8 34-22 4-10 2-21-6-28-16-9-49-10-65 0Z" fill="#f6d5ba" stroke="#4b3219" stroke-width="4"/>
    <path d="M21 43c14-15 50-18 72 1-15 0-33-5-43-17 1 10 5 17 11 24-17-4-29-11-36-22 0 7 1 13 4 18-3-1-6-2-8-4Z" fill="#2c2015"/>
    <circle cx="36" cy="61" r="3" fill="#4b3219"/>
    <circle cx="75" cy="61" r="3" fill="#4b3219"/>
    <path d="M49 77c7 5 15 5 22 0" fill="none" stroke="#4b3219" stroke-width="3" stroke-linecap="round"/>
    <circle cx="33" cy="70" r="5" fill="#efb99d"/>
    <circle cx="79" cy="70" r="5" fill="#efb99d"/>

    <path d="M27 98c-18 13-27 34-25 56 1 14 9 23 22 23 8 0 15-4 19-11l4-42" fill="#fffdf7" stroke="#4b3219" stroke-width="4"/>
    <path d="M86 98c18 13 27 34 25 56-1 14-9 23-22 23-8 0-15-4-19-11l-4-42" fill="#fffdf7" stroke="#4b3219" stroke-width="4"/>
    <path d="M40 98h34l-6 69H46l-6-69Z" fill="#788323"/>
    <path d="M43 99l-11 46M72 99l11 46" stroke="#4b3219" stroke-width="5" stroke-linecap="round"/>
    <path d="M57 146v-36" stroke="#5b971b" stroke-width="5" stroke-linecap="round"/>
    <path d="M57 114c-22-1-33-13-37-28 19-2 34 8 37 28Z" fill="#68a616" stroke="#4f8614" stroke-width="2"/>
    <path d="M59 114c22-1 33-13 37-28-19-2-34 8-37 28Z" fill="#68a616" stroke="#4f8614" stroke-width="2"/>
    <path d="M34 151c13-8 33-8 47 0" fill="#5f431f"/>
  </g>
</svg>
