<svg xmlns="http://www.w3.org/2000/svg" viewBox="0 0 520 150" role="img" aria-labelledby="title desc">
  <title id="title">풍무농산 로고</title>
  <desc id="desc">잎과 과일, 바구니 곡선을 간결하게 담은 풍무농산 워드마크</desc>
  <defs>
    <linearGradient id="markGreen" x1="44" y1="18" x2="104" y2="116" gradientUnits="userSpaceOnUse">
      <stop offset="0" stop-color="#52b96b"/>
      <stop offset="1" stop-color="#004225"/>
    </linearGradient>
    <linearGradient id="fruitRed" x1="56" y1="56" x2="98" y2="106" gradientUnits="userSpaceOnUse">
      <stop offset="0" stop-color="#ff7868"/>
      <stop offset="1" stop-color="#d9362f"/>
    </linearGradient>
  </defs>

  <g transform="translate(24 18)">
    <path d="M70 10c28 5 50 27 53 58-31 3-57-10-70-36 4-10 9-17 17-22Z" fill="url(#markGreen)"/>
    <path d="M72 18c17 16 28 32 36 51" fill="none" stroke="#f4ffec" stroke-width="5" stroke-linecap="round"/>
    <path d="M45 34c-16 12-23 29-17 49 22-5 36-20 39-43-7-4-14-6-22-6Z" fill="#86c84f"/>
    <circle cx="73" cy="78" r="27" fill="url(#fruitRed)"/>
    <circle cx="93" cy="73" r="22" fill="#f5b93e"/>
    <path d="M30 90c20 22 78 23 99 0" fill="none" stroke="#8a572c" stroke-width="10" stroke-linecap="round"/>
    <path d="M42 102c15 11 59 12 75 0" fill="none" stroke="#c99145" stroke-width="7" stroke-linecap="round"/>
  </g>

  <g transform="translate(170 36)">
    <text x="0" y="45" font-family="Apple SD Gothic Neo, Malgun Gothic, Pretendard, sans-serif" font-size="42" font-weight="900" letter-spacing="-2.4" fill="#0b2417">풍무농산</text>
    <path d="M2 61h198" stroke="#0b5c35" stroke-width="4" stroke-linecap="round"/>
    <text x="2" y="88" font-family="Apple SD Gothic Neo, Malgun Gothic, Pretendard, sans-serif" font-size="16" font-weight="800" letter-spacing="1.2" fill="#5f765f">오늘 들어온 신선함</text>
  </g>
</svg>
